<?xml version="1.0" encoding="utf-8"?><svg version="1.1" id="Layer_2" xmlns="http://www.w3.org/2000/svg" xmlns:xlink="http://www.w3.org/1999/xlink" x="0px" y="0px" viewBox="-320 351 170 92" style="enable-background:new -320 351 170 92;" xml:space="preserve"><style type="text/css">.st0{fill:none;stroke:#000000;stroke-miterlimit:10;}.st1{fill:#000000;}</style><g id="h-logo__shield--small"><path class="st0" d="M-286.2,440.8c-1.9,0-3.3-1.3-3.3-3.2V353"/><polygon class="st0" points="-282.5,371.7 -289.4,378.2 -296.5,371.7 -296.5,359.1 -289.4,352.4 -282.5,359.1 "/><polyline class="st0" points="-306.5,398 -306.5,410 -298.7,417.5 -291.9,417.5 -289.6,415.2 -287,417.5 -280.3,417.5 -272.5,410 -272.5,398 "/><polygon class="st0" points="-289.6,382 -299.8,371.5 -310.5,371.5 -310.5,381.9 -299,393.3 -289.7,384 -280,393.3 -268.5,381.9 -268.5,371.5 -279.1,371.5 "/><polyline class="st0" points="-268.7,371.7 -289.6,392.6 -310.3,371.7 "/><polyline class="st0" points="-270.5,384 -270.5,396.3 -280,405.8 -289.6,396.5 -298.9,405.8 -308.5,396.3 -308.5,384 "/><path class="st0" d="M-283,361.5h23.5v38.3c0,15.6-12.7,28.7-28.2,28.7h-3.3c-15.8,0-28.5-12.9-28.5-28.5v-38.5h23.5"/><polyline class="st0" points="-280.1,393.3 -289.6,402.8 -298.9,393.3 "/><polyline class="st0" points="-280.1,405.8 -289.6,415.1 -298.9,405.8 "/></g><g><path class="st1" d="M-245.3,377.8v6.3c0,1.1,0.1,1.8,0.4,2.3c0.3,0.4,0.9,0.6,1.9,0.6h0.1v0.6h-7.5v-0.6h0.2c0.9,0,1.5-0.2,1.8-0.5c0.3-0.3,0.5-1,0.5-1.9v-14.5c0-0.9-0.1-1.4-0.4-1.8c-0.3-0.3-0.9-0.5-1.7-0.6v-0.6h7.1v0.6c-0.5,0-1,0-1.3,0.1c-0.3,0.1-0.6,0.3-0.7,0.5s-0.3,0.6-0.4,1c-0.1,0.4-0.1,0.9-0.1,1.6v5.7h11.6v-6.5c0-0.9-0.2-1.5-0.5-1.9c-0.3-0.4-0.9-0.5-1.9-0.5h-0.6v-0.6h7.6v0.6c-0.9,0-1.5,0.2-1.8,0.6s-0.5,1.1-0.5,2.1v13.7c0,1.2,0.2,1.9,0.5,2.3c0.3,0.4,1,0.6,1.9,0.6h0.3v0.6h-8.4v-0.6h0.9c1,0,1.6-0.2,1.9-0.6c0.3-0.4,0.4-1,0.4-1.9v-6.7H-245.3z"/><path class="st1" d="M-203.1,367.1v0.6c-1,0-1.7,0.3-2.1,0.7c-0.4,0.5-0.6,1.2-0.6,2.3v8.9c0,1-0.2,2-0.5,3c-0.3,1-0.8,1.9-1.5,2.7c-0.7,0.8-1.6,1.5-2.7,2c-1.1,0.5-2.5,0.7-4.1,0.7c-1.4,0-2.7-0.2-3.7-0.6c-1.1-0.4-2-1-2.7-1.7s-1.3-1.6-1.6-2.6c-0.4-1-0.5-2.1-0.5-3.3v-9.6c0-0.5,0-0.9-0.1-1.3s-0.2-0.6-0.4-0.7c-0.2-0.2-0.4-0.3-0.8-0.4c-0.3-0.1-0.7-0.1-1.3-0.1v-0.6h7.6v0.6h-0.3c-0.8,0-1.4,0.2-1.8,0.5c-0.4,0.3-0.6,1-0.6,1.9v9.1c0,2.2,0.6,4,1.7,5.2c1.1,1.3,2.8,1.9,5.1,1.9c0.8,0,1.7-0.1,2.5-0.3c0.8-0.2,1.5-0.6,2.2-1.2c0.6-0.5,1.2-1.3,1.5-2.2s0.6-2.1,0.6-3.5v-7.7c0-0.8,0-1.4-0.1-1.9c-0.1-0.5-0.2-0.9-0.4-1.2c-0.2-0.3-0.5-0.5-0.9-0.6s-0.9-0.2-1.5-0.2v-0.6H-203.1z"/><path class="st1" d="M-187.4,387.6h-13.3v-0.6h1c0.7,0,1.2-0.2,1.5-0.5c0.3-0.3,0.4-0.9,0.4-1.7v-14.6c0-0.9-0.2-1.5-0.5-1.9c-0.3-0.4-0.9-0.6-1.9-0.6h-0.4v-0.6h8.8v0.6h-1.1c-0.5,0-0.9,0-1.2,0.1c-0.3,0-0.6,0.1-0.8,0.3c-0.2,0.2-0.3,0.4-0.4,0.7c-0.1,0.3-0.1,0.7-0.1,1.2v15.2c0,0.4,0.1,0.8,0.3,0.9c0.2,0.2,0.5,0.3,0.9,0.3h4.4c0.4,0,0.8-0.1,1.1-0.2c0.3-0.1,0.6-0.3,0.9-0.6c0.3-0.3,0.6-0.6,0.9-1.1c0.3-0.5,0.7-1.1,1.2-1.8h0.5L-187.4,387.6z"/><path class="st1" d="M-175.1,384.5c0,0.9,0.2,1.5,0.5,1.9c0.3,0.4,0.9,0.5,1.9,0.5h1.1v0.6h-9.4v-0.6h1.1c0.9,0,1.5-0.2,1.9-0.5c0.3-0.4,0.5-1,0.5-1.9v-16.3h-5.2c-0.3,0-0.6,0.1-0.8,0.2c-0.2,0.1-0.4,0.3-0.6,0.6c-0.2,0.3-0.3,0.6-0.4,1.1c-0.1,0.5-0.3,1.1-0.4,1.8h-0.5l0.5-5.3h0.6c0,0.2,0.1,0.3,0.3,0.4c0.2,0.1,0.4,0.1,0.6,0.1h14.3c0.2,0,0.4,0,0.6-0.1c0.2-0.1,0.3-0.2,0.3-0.4h0.6l0.5,5.3h-0.5c-0.1-0.7-0.2-1.3-0.4-1.8c-0.1-0.5-0.3-0.8-0.4-1.1c-0.2-0.3-0.4-0.5-0.6-0.6c-0.2-0.1-0.5-0.2-0.8-0.2h-5.2V384.5z"/></g><g><path class="st1" d="M-249.6,403v-6.7h0.8v6.7H-249.6z"/><path class="st1" d="M-242,403l-3.9-5.3v5.3h-0.8v-6.7h0.8l3.8,5.2v-5.2h0.8v6.7H-242z"/><path class="st1" d="M-237.5,403v-5.9h-2.1v-0.7h5.1v0.7h-2.1v5.9H-237.5z"/><path class="st1" d="M-232.9,403v-6.7h4.4v0.7h-3.5v2.1h3.5v0.7h-3.5v2.3h3.5v0.7H-232.9z"/><path class="st1" d="M-222.9,403l-1.7-2.6h-1.3v2.6h-0.8v-6.7h2.7c1.2,0,2.1,0.8,2.1,2c0,1.2-0.8,1.9-1.7,1.9l1.8,2.7H-222.9z M-222.8,398.3c0-0.8-0.5-1.3-1.3-1.3h-1.7v2.5h1.7C-223.4,399.6-222.8,399.1-222.8,398.3z"/><path class="st1" d="M-215.5,403l-3.9-5.3v5.3h-0.8v-6.7h0.8l3.8,5.2v-5.2h0.8v6.7H-215.5z"/><path class="st1" d="M-207.9,403l-0.6-1.5h-3.3l-0.6,1.5h-0.9l2.7-6.7h1l2.7,6.7H-207.9z M-210.1,397.2l-1.4,3.6h2.8L-210.1,397.2z"/><path class="st1" d="M-204.6,403v-5.9h-2.1v-0.7h5.1v0.7h-2.1v5.9H-204.6z"/><path class="st1" d="M-200,403v-6.7h0.8v6.7H-200z"/><path class="st1" d="M-197.4,399.7c0-2,1.3-3.4,3.3-3.4c2,0,3.3,1.5,3.3,3.4s-1.3,3.4-3.3,3.4C-196.1,403.1-197.4,401.6-197.4,399.7z M-191.7,399.7c0-1.6-1-2.7-2.4-2.7c-1.5,0-2.4,1.1-2.4,2.7c0,1.5,0.9,2.7,2.4,2.7C-192.6,402.4-191.7,401.2-191.7,399.7z"/><path class="st1" d="M-184.3,403l-3.9-5.3v5.3h-0.8v-6.7h0.8l3.8,5.2v-5.2h0.8v6.7H-184.3z"/><path class="st1" d="M-176.7,403l-0.6-1.5h-3.3l-0.6,1.5h-0.9l2.7-6.7h1l2.7,6.7H-176.7z M-178.9,397.2l-1.4,3.6h2.8L-178.9,397.2z"/><path class="st1" d="M-174.4,403v-6.7h0.8v5.9h3.1v0.7H-174.4z"/></g><g><path class="st1" d="M-249.6,415v-6.7h3c1.2,0,1.9,0.7,1.9,1.7c0,0.8-0.6,1.4-1.2,1.5c0.7,0.1,1.3,0.8,1.3,1.6c0,1.1-0.7,1.8-1.9,1.8H-249.6z M-245.6,410.2c0-0.6-0.4-1.1-1.1-1.1h-2v2.1h2C-246,411.2-245.6,410.8-245.6,410.2z M-245.5,413.1c0-0.6-0.4-1.1-1.2-1.1h-2v2.3h2C-245.9,414.3-245.5,413.8-245.5,413.1z"/><path class="st1" d="M-243,412.4v-4.1h0.8v4.1c0,1.2,0.7,2,1.9,2s1.9-0.8,1.9-2v-4.1h0.8v4.1c0,1.7-0.9,2.7-2.7,2.7S-243,414.1-243,412.4z"/><path class="st1" d="M-236.1,414.1l0.5-0.6c0.4,0.5,1.2,0.9,2.1,0.9c1.2,0,1.6-0.6,1.6-1.1c0-1.7-3.9-0.8-3.9-3.1c0-1.1,1-1.8,2.3-1.8c1,0,1.8,0.3,2.4,0.9l-0.5,0.6c-0.5-0.5-1.2-0.8-1.9-0.8c-0.8,0-1.4,0.4-1.4,1.1c0,1.5,3.9,0.6,3.9,3.1c0,1-0.7,2-2.5,2C-234.7,415.1-235.5,414.7-236.1,414.1z"/><path class="st1" d="M-229.5,415v-6.7h0.8v6.7H-229.5z"/><path class="st1" d="M-222.1,415l-3.9-5.3v5.3h-0.8v-6.7h0.8l3.8,5.2v-5.2h0.8v6.7H-222.1z"/><path class="st1" d="M-219.5,415v-6.7h4.4v0.7h-3.5v2.1h3.5v0.7h-3.5v2.3h3.5v0.7H-219.5z"/><path class="st1" d="M-213.9,414.1l0.5-0.6c0.4,0.5,1.2,0.9,2.1,0.9c1.2,0,1.6-0.6,1.6-1.1c0-1.7-3.9-0.8-3.9-3.1c0-1.1,1-1.8,2.3-1.8c1,0,1.8,0.3,2.4,0.9l-0.5,0.6c-0.5-0.5-1.2-0.8-1.9-0.8c-0.8,0-1.4,0.4-1.4,1.1c0,1.5,3.9,0.6,3.9,3.1c0,1-0.7,2-2.5,2C-212.5,415.1-213.3,414.7-213.9,414.1z"/><path class="st1" d="M-207.7,414.1l0.5-0.6c0.4,0.5,1.2,0.9,2.1,0.9c1.2,0,1.6-0.6,1.6-1.1c0-1.7-3.9-0.8-3.9-3.1c0-1.1,1-1.8,2.3-1.8c1,0,1.8,0.3,2.4,0.9l-0.5,0.6c-0.5-0.5-1.2-0.8-1.9-0.8c-0.8,0-1.4,0.4-1.4,1.1c0,1.5,3.9,0.6,3.9,3.1c0,1-0.7,2-2.5,2C-206.3,415.1-207.2,414.7-207.7,414.1z"/><path class="st1" d="M-198.7,414.1l0.5-0.6c0.4,0.5,1.2,0.9,2.1,0.9c1.2,0,1.6-0.6,1.6-1.1c0-1.7-3.9-0.8-3.9-3.1c0-1.1,1-1.8,2.3-1.8c1,0,1.8,0.3,2.4,0.9l-0.5,0.6c-0.5-0.5-1.2-0.8-1.9-0.8c-0.8,0-1.4,0.4-1.4,1.1c0,1.5,3.9,0.6,3.9,3.1c0,1-0.7,2-2.5,2C-197.3,415.1-198.1,414.7-198.7,414.1z"/><path class="st1" d="M-192.4,411.7c0-2,1.5-3.4,3.4-3.4c1.2,0,2,0.6,2.5,1.3l-0.7,0.4c-0.4-0.6-1.1-1-1.8-1c-1.5,0-2.6,1.1-2.6,2.7c0,1.6,1.1,2.7,2.6,2.7c0.8,0,1.4-0.4,1.8-1l0.7,0.4c-0.6,0.8-1.4,1.3-2.5,1.3C-190.9,415.1-192.4,413.7-192.4,411.7z"/><path class="st1" d="M-180.3,415v-3.1h-3.9v3.1h-0.8v-6.7h0.8v2.9h3.9v-2.9h0.8v6.7H-180.3z"/><path class="st1" d="M-177.9,411.7c0-2,1.3-3.4,3.3-3.4c2,0,3.3,1.5,3.3,3.4s-1.3,3.4-3.3,3.4C-176.6,415.1-177.9,413.6-177.9,411.7z M-172.1,411.7c0-1.6-1-2.7-2.4-2.7c-1.5,0-2.4,1.1-2.4,2.7c0,1.5,0.9,2.7,2.4,2.7C-173.1,414.4-172.1,413.2-172.1,411.7z"/><path class="st1" d="M-169.9,411.7c0-2,1.3-3.4,3.3-3.4c2,0,3.3,1.5,3.3,3.4s-1.3,3.4-3.3,3.4C-168.6,415.1-169.9,413.6-169.9,411.7z M-164.2,411.7c0-1.6-1-2.7-2.4-2.7c-1.5,0-2.4,1.1-2.4,2.7c0,1.5,0.9,2.7,2.4,2.7C-165.1,414.4-164.2,413.2-164.2,411.7z"/><path class="st1" d="M-161.7,415v-6.7h0.8v5.9h3.1v0.7H-161.7z"/></g></svg>
