<?xml version="1.0" encoding="UTF-8" standalone="no"?>
<svg width="52px" height="60px" viewBox="0 0 52 60" version="1.1" xmlns="http://www.w3.org/2000/svg" xmlns:xlink="http://www.w3.org/1999/xlink" xmlns:sketch="http://www.bohemiancoding.com/sketch/ns">
    <!-- Generator: Sketch 3.3.3 (12081) - http://www.bohemiancoding.com/sketch -->
    <title>Path Copy</title>
    <desc>Created with Sketch.</desc>
    <defs></defs>
    <g id="Page-1" stroke="none" stroke-width="1" fill="none" fill-rule="evenodd" sketch:type="MSPage">
        <g id="Work-Copy-2" sketch:type="MSArtboardGroup" transform="translate(-100.000000, -10.000000)" fill="#E02C8F">
            <g id="Group-Copy-9" sketch:type="MSLayerGroup">
                <path d="M137.488372,46.48 L152,54.9419352 L152,54.9876903 L125.953771,70 L100,54.9876903 L100,24.9754979 L125.953771,10 L152,24.9754979 L152,38.1979898 L152,38.1979898 L146.55814,41.3037437 L146.55814,33.52 L143.485454,33.52 L143.485454,38.382311 L140.561058,38.382311 L140.561058,33.52 L137.488372,33.52 L137.488372,46.48 Z M140.561058,44.7263709 L143.485454,43.0573727 L143.485454,41.1000285 L140.561058,41.1000285 L140.561058,44.7263709 Z M114.390698,33.52 L100,25 L100,41.8 L105.44186,38.6689076 L105.44186,46.48 L114.390698,46.48 L114.390698,43.7815297 L108.450369,43.7815297 L108.450369,41.3584136 L113.152705,41.3584136 L113.152705,38.6599433 L108.450369,38.6599433 L108.450369,36.9378971 L109.541215,36.310255 L114.390698,36.310255 L114.390698,33.52 L114.390698,33.52 Z M121.775096,36.2377175 L124.798351,36.2377175 L124.798351,33.52 L115.72093,33.52 L115.72093,36.2377175 L118.744186,36.2377175 L118.744186,46.48 L121.775096,46.48 L121.775096,36.2377175 Z M132.798905,41.8930337 L132.798905,42.8941573 C132.798905,43.5494382 132.308489,43.8042697 131.709092,43.8042697 L130.328661,43.8042697 C129.729264,43.8042697 129.238848,43.5494382 129.238848,42.8941573 L129.238848,37.1058427 C129.238848,36.4505618 129.729264,36.1957303 130.328661,36.1957303 L131.709092,36.1957303 C132.308489,36.1957303 132.798905,36.4505618 132.798905,37.1058427 L132.798905,38.0705618 L135.795892,38.0705618 L135.795892,36.4323596 C135.795892,34.9397753 134.469953,33.52 132.072363,33.52 L130.147026,33.52 C127.640454,33.52 126.24186,34.9397753 126.24186,36.4323596 L126.24186,43.5676404 C126.24186,45.0602247 127.640454,46.48 130.147026,46.48 L132.072363,46.48 C134.469953,46.48 135.795892,45.0602247 135.795892,43.5676404 L135.795892,41.8930337 L132.798905,41.8930337 Z" id="Path-Copy" sketch:type="MSShapeGroup"></path>
            </g>
        </g>
    </g>
</svg>