<?xml version="1.0" encoding="UTF-8"?>
<svg width="165px" height="20px" viewBox="0 0 165 20" version="1.1" xmlns="http://www.w3.org/2000/svg" xmlns:xlink="http://www.w3.org/1999/xlink">
    <!-- Generator: Sketch 41.2 (35397) - http://www.bohemiancoding.com/sketch -->
    <title>cf_logo_full</title>
    <desc>Created with Sketch.</desc>
    <defs></defs>
    <g id="Page-1" stroke="none" stroke-width="1" fill="none" fill-rule="evenodd">
        <g id="cf_logo_full" fill="#000000">
            <g id="Page-1">
                <g id="Wordmark-White">
                    <g id="Page-1">
                        <path d="M10.5520078,13.184375 C9.96290625,16.3510417 7.61294531,19.9109375 3.93911718,19.9109375 C-1.37439844,19.9109375 -0.053109375,13.6036458 0.780914062,9.67265625 C1.58915625,5.86276042 3.20564062,0.468229167 8.07700781,0.468229167 C11.3847422,0.468229167 12.4856016,3.11666667 11.8732968,6.25729167 L10.2825938,6.25729167 C10.5765,4.05677083 10.2078281,1.903125 7.73411718,1.903125 C3.86564062,1.903125 2.81247656,7.54375 2.29942968,10.0411458 C1.71161718,12.8861979 0.38775,18.4760417 4.42896093,18.4760417 C7.17208593,18.4760417 8.39669533,15.4604167 8.96001558,13.184375 L10.5520078,13.184375 Z" id="Fill-1"></path>
                        <path d="M20.3735039,12.3171875 L19.9326445,2.94348958 L19.8823711,2.94348958 L15.4750664,12.3171875 L20.3735039,12.3171875 Z M21.2552227,0.913541667 L22.2826055,19.465625 L20.6674102,19.465625 L20.4211993,13.7520833 L14.8395586,13.7520833 L12.145418,19.465625 L10.6024102,19.465625 L19.4183086,0.913541667 L21.2552227,0.913541667 Z" id="Fill-4"></path>
                        <path d="M27.8196445,9.30104167 L30.6104648,9.30104167 C31.149293,9.30104167 33.893707,9.103125 34.6039805,5.78671875 C35.1660118,3.06796875 34.0883555,2.34791667 31.5901523,2.34791667 L29.2891758,2.34791667 L27.8196445,9.30104167 Z M27.5257382,10.7359375 L25.6888242,19.4664063 L24.096832,19.4664063 L27.9910898,0.914322917 L31.542457,0.914322917 C34.8965977,0.914322917 37.0029258,1.90260417 36.2204648,5.66432292 C35.8273008,7.4703125 34.6271836,9.59661458 32.594332,10.0184896 L32.594332,10.0666667 C34.6039805,10.6109375 34.553707,12.2684896 34.0883555,14.5927083 C33.9414023,15.4833333 33.1331602,18.7489583 33.9414023,19.2450521 L33.893707,19.4664063 L32.1534727,19.4664063 C31.7860898,17.9065104 32.5208555,14.7411458 32.6923008,13.3830729 C33.0596836,10.9078125 31.2472617,10.7359375 29.1667148,10.7359375 L27.5257382,10.7359375 Z" id="Fill-6"></path>
                        <polygon id="Fill-8" points="35.9518243 19.4660156 39.846082 0.913932292 48.1708477 0.913932292 47.8769414 2.34882813 41.1428789 2.34882813 39.7468242 9.02851558 45.8698711 9.02851558 45.5501836 10.4634114 39.4284258 10.4634114 37.8364336 18.0311198 44.6942461 18.0311198 44.4003398 19.4660156"></polygon>
                        <polygon id="Fill-10" points="46.8257109 19.4660156 50.7199687 0.913932292 59.0447344 0.913932292 58.7508282 2.34882813 52.0167657 2.34882813 50.6207109 9.02851558 56.7437578 9.02851558 56.4240703 10.4634114 50.3023125 10.4634114 48.7103203 18.0311198 55.5681328 18.0311198 55.2742266 19.4660156"></polygon>
                        <path d="M61.3239257,9.30104167 L64.1160352,9.30104167 C64.6548633,9.30104167 67.3966992,9.103125 68.1069727,5.78671875 C68.670293,3.06796875 67.5926367,2.34791667 65.0957227,2.34791667 L62.793457,2.34791667 L61.3239257,9.30104167 Z M61.0287305,10.7359375 L59.1943945,19.4664063 L57.6011133,19.4664063 L61.4953711,0.914322917 L65.0467383,0.914322917 C68.4008789,0.914322917 70.507207,1.90260417 69.723457,5.66432292 C69.331582,7.4703125 68.1314648,9.59661458 66.0999023,10.0184896 L66.0999023,10.0666667 C68.1069727,10.6109375 68.0592773,12.2684896 67.5926367,14.5927083 C67.4456836,15.4833333 66.6387305,18.7489583 67.4456836,19.2450521 L67.3966992,19.4664063 L65.6577539,19.4664063 C65.2916602,17.9065104 66.0251368,14.7411458 66.196582,13.3830729 C66.5639648,10.9078125 64.752832,10.7359375 62.6709961,10.7359375 L61.0287305,10.7359375 Z" id="Fill-12"></path>
                        <polygon id="Fill-14" points="69.5039297 19.4660156 73.3981875 0.913932292 83.5379533 0.913932292 82.7774062 4.62486979 76.9482656 4.62486979 76.2392813 7.91523438 81.6017813 7.91523438 80.8180313 11.6261718 75.4555313 11.6261718 73.8145547 19.4660156"></polygon>
                        <path d="M91.4230192,6.3078125 C91.6692308,5.16848958 91.8651683,3.8078125 90.4433317,3.8078125 C89.0730583,3.8078125 88.6077067,5.16848958 88.362785,6.3078125 L86.7707933,13.925 C86.5258708,14.9901042 86.3802067,16.5721354 87.7749725,16.5721354 C89.1710275,16.5721354 89.5873942,14.9901042 89.8323167,13.925 L91.4230192,6.3078125 Z M94.2151292,13.5552083 C93.33341,17.7335938 91.4230192,19.9106771 87.0646992,19.9106771 C82.7063789,19.9106771 81.6532148,17.7335938 82.5336445,13.5552083 L84.1269258,6.00963542 C84.8616917,2.44713542 87.3830975,0.469270833 91.1536058,0.469270833 C94.9254025,0.469270833 96.5418867,2.44713542 95.8071208,6.00963542 L94.2151292,13.5552083 Z" id="Fill-16"></path>
                        <path d="M98.8451833,0.913802083 L103.155808,0.913802083 L100.216746,14.9164062 C100.020808,15.8070313 100.144558,16.5713542 101.367879,16.5713542 C102.494519,16.5713542 103.033347,15.5830729 103.204793,14.7914062 L106.119363,0.913802083 L110.428699,0.913802083 L107.613387,14.3460938 C106.952097,17.4880208 105.041707,19.9111979 100.633113,19.9111979 C96.9850667,19.9111979 95.2216292,18.1559896 96.0298708,14.3460938 L98.8451833,0.913802083 Z" id="Fill-18"></path>
                        <polygon id="Fill-21" points="114.520442 9.0772135 114.471457 9.12799475 112.683528 19.4665364 108.593332 19.4665364 112.488879 0.913151042 116.919387 0.913151042 118.071808 11.2790364 118.145285 11.2790364 119.908722 0.913151042 123.997629 0.913151042 120.10466 19.4665364 115.696067 19.4665364"></polygon>
                        <path d="M127.305363,16.1268229 C130.146457,16.3247396 130.415871,15.1372396 130.856731,12.6632813 L132.154817,6.60338542 C132.569894,4.42630208 131.885402,4.30390625 129.802278,4.253125 L127.305363,16.1268229 Z M122.284465,19.4653646 L126.180012,0.91328125 L130.856731,0.91328125 C132.424231,0.91328125 134.310129,0.9640625 135.533449,1.78046875 C136.978488,2.77005208 136.880519,4.57604167 136.513137,6.35598958 L134.775481,14.5929688 C134.357824,16.4497396 133.501887,17.8104167 132.08134,18.6007813 C130.807746,19.3442708 129.411692,19.4653646 128.087824,19.4653646 L122.284465,19.4653646 Z" id="Fill-23"></path>
                        <path d="M142.368703,8.80520833 L143.836945,8.80520833 C145.086047,8.80520833 145.623586,7.64244792 145.845305,6.50572917 C146.311945,4.30390625 145.428938,4.20494792 143.322609,4.253125 L142.368703,8.80520833 Z M140.115422,19.4666667 L135.804797,19.4666667 L139.699055,0.91328125 L145.992258,0.91328125 C149.519133,0.91328125 150.988664,2.34817708 150.203625,6.03567708 C149.788547,8.01484375 149.028,9.42369792 147.045422,10.2648438 L147.045422,10.3130208 C148.172063,10.5851563 148.856555,11.4276042 148.661907,12.7140625 C148.465969,14.1971354 147.829172,17.3885417 147.829172,18.5760417 C147.876868,18.8221354 147.951633,19.0460938 148.098586,19.2192708 L148.048313,19.4666667 L143.348391,19.4666667 C143.298118,19.1203125 143.273625,18.7739583 143.322609,18.4028646 C143.592023,16.7700521 144.008391,15.2361979 144.130852,14.0994792 C144.254602,12.9601563 144.058664,12.2179688 143.078977,12.14375 L141.65843,12.14375 L140.115422,19.4666667 Z" id="Fill-25"></path>
                        <polygon id="Fill-27" points="156.868207 6.97408854 156.915903 6.97408854 160.392504 0.914192708 164.703129 0.914192708 158.01934 11.6733073 156.377074 19.466276 152.066449 19.466276 153.708715 11.6733073 151.626879 0.914192708 155.985199 0.914192708"></polygon>
                    </g>
                </g>
            </g>
        </g>
    </g>
</svg>