
<svg width="172px" height="36px" viewBox="-1 0 172 36" version="1.1" xmlns="http://www.w3.org/2000/svg" xmlns:xlink="http://www.w3.org/1999/xlink">
    <!-- Generator: Sketch 42 (36781) - http://www.bohemiancoding.com/sketch -->
    <desc>Created with Sketch.</desc>
    <defs></defs>
    <path d="M9.7103205,18.5608286 C10.7816355,17.4859714 11.3724405,16.0571143 11.3724405,14.5382571 C11.3724405,13.0185429 10.7816355,11.5896857 9.7103205,10.5156857 C8.6390055,9.44168571 7.2128655,8.84854286 5.6978055,8.84854286 C2.5685055,8.84854286 0.0223155,11.4011143 0.0223155,14.5382571 C0.0223155,16.0571143 0.6139755,17.4859714 1.6852905,18.5608286 C2.7557505,19.6348286 4.1818905,20.2271143 5.6978055,20.2271143 C7.2128655,20.2271143 8.6390055,19.6348286 9.7103205,18.5608286 Z" id="Fill-1" stroke="none" fill="#000000" fill-rule="evenodd"></path>
    <path d="M16.3611945,6.41391429 C13.7808045,2.91505714 9.8760195,0.912771429 5.5856295,0.912771429 L-8.54999998e-05,0.918771429 L-8.54999998e-05,6.4902 C-8.54999998e-05,6.4902 5.5633995,6.47562857 5.5625445,6.47562857 C9.9965745,6.47562857 13.6055295,10.0919143 13.6055295,14.5387714 C13.6055295,18.9847714 9.9965745,22.6010571 5.5625445,22.6010571 C5.5633995,22.6010571 -8.54999998e-05,22.5873429 -8.54999998e-05,22.5873429 L-8.54999998e-05,28.1570571 L5.5856295,28.1639143 C9.8760195,28.1639143 13.7808045,26.1607714 16.3611945,22.6627714 C18.9415845,26.1607714 22.8463695,28.1639143 27.1376145,28.1639143 L32.7224745,28.1570571 L32.7224745,22.5873429 C32.7224745,22.5873429 27.1589895,22.6010571 27.1598445,22.6010571 C22.7258145,22.6010571 19.1168595,18.9847714 19.1168595,14.5387714 C19.1168595,10.0919143 22.7258145,6.47562857 27.1598445,6.47562857 C27.1589895,6.47562857 32.7224745,6.4902 32.7224745,6.4902 L32.7224745,0.918771429 L27.1376145,0.912771429 C22.8463695,0.912771429 18.9415845,2.91505714 16.3611945,6.41391429" id="Fill-3" stroke="none" fill="#000000" fill-rule="evenodd"></path>
    <polygon id="Fill-9" stroke="none" fill="#000000" fill-rule="evenodd" points="62.557785 28.1558571 67.61169 28.1558571 67.61169 8.95414286 62.557785 8.95414286"></polygon>
    <polygon id="Fill-11" stroke="none" fill="#000000" fill-rule="evenodd" points="62.557785 5.48271429 67.61169 5.48271429 67.61169 0.992142857 62.557785 0.992142857"></polygon>
    <path d="M92.5647795,8.60914286 C89.9561745,8.60914286 88.3427895,9.74228571 86.7276945,12.1997143 C86.0060745,10.1211429 83.1555045,8.60914286 81.2326095,8.60914286 C78.6222945,8.60914286 77.0089095,9.74228571 75.9444345,11.406 L75.8751795,11.406 L75.8751795,8.95628571 L70.7580045,8.95628571 L70.7580045,28.1562857 L75.9367395,28.1562857 L75.9358845,16.5831429 C76.0350645,13.7648571 77.6039895,12.6214286 79.0523595,12.6085714 C80.6486445,12.5965714 82.0653795,13.4905714 82.0653795,16.0337143 L82.0645245,28.1562857 L87.2706195,28.1562857 L87.2689095,16.5831429 C87.2637795,13.9302857 88.8241545,12.5965714 90.4401045,12.6085714 C91.9337895,12.6214286 93.4043895,13.4905714 93.3992595,16.0337143 L93.3975495,28.1562857 L98.5762845,28.1562857 L98.5762845,16.7382857 C98.5762845,15.2262857 98.6096295,13.6371429 98.0607195,12.1997143 C97.3382445,10.1211429 94.4885295,8.60914286 92.5647795,8.60914286" id="Fill-12" stroke="none" fill="#000000" fill-rule="evenodd"></path>
    <polygon id="Fill-13" stroke="none" fill="#000000" fill-rule="evenodd" points="165.677283 9.2298 160.383123 9.2298 157.118733 14.5595143 153.887688 9.2298 147.682953 9.2298 153.866313 18.2932286 147.435003 28.2103714 152.929233 28.2103714 156.882753 21.7655143 160.416468 28.2103714 166.403178 28.2103714 159.972723 17.8423714"></polygon>
    <polygon id="Fill-14" stroke="none" fill="#000000" fill-rule="evenodd" points="121.634865 28.2107143 126.799065 28.2107143 126.799065 0.910714286 121.634865 0.910714286"></polygon>
    <path d="M45.7535295,23.6208 L42.8319945,23.6208 L42.8319945,5.39451429 L45.7535295,5.39451429 C52.6944195,5.4288 53.7905295,10.1602286 53.7905295,14.5076571 C53.7905295,18.8550857 52.8038595,23.6962286 45.7535295,23.6208 M46.1562345,0.857657143 L37.1701845,0.857657143 L37.1701845,28.1585143 L46.1562345,28.1585143 C55.1405745,28.1250857 59.4908145,23.9979429 59.4908145,14.5076571 C59.4908145,5.01737143 54.3762045,0.781371429 46.1562345,0.857657143" id="Fill-6" stroke="none" fill="#000000" fill-rule="evenodd"></path>
    <path d="M110.276789,24.6948 C107.222729,24.6948 106.224944,21.4796571 106.224944,18.7968 C106.224944,16.2005143 107.314214,12.8996571 110.263109,12.8996571 C113.548874,12.8996571 114.411569,16.1139429 114.411569,18.7968 C114.411569,21.4796571 113.620694,24.6948 110.276789,24.6948 M111.050564,8.7168 C109.187519,8.7168 107.254364,9.88937143 106.250594,11.4768 L106.178774,11.4768 L106.183049,9.28422857 L101.177024,9.28422857 C101.168474,10.5313714 101.165909,11.8728 101.165909,13.1199429 L101.165909,35.5256571 L106.178774,35.5256571 L106.178774,25.9813714 C107.327039,28.1979429 109.408964,28.8330857 111.729434,28.8330857 C116.993669,28.8330857 119.464619,23.6533714 119.464619,18.7745143 C119.464619,13.6710857 116.636279,8.7168 111.050564,8.7168" id="Fill-15" stroke="none" fill="#000000" fill-rule="evenodd"></path>
    <path d="M138.449209,13.0099714 C140.773954,13.0099714 142.595959,14.8819714 142.605364,16.6965429 L134.282794,16.6965429 C134.178484,15.2668286 136.162939,13.0099714 138.449209,13.0099714 L138.449209,13.0099714 Z M142.546369,22.5354 C141.990619,24.0945429 140.390059,24.7665429 138.553519,24.7665429 C135.759379,24.7665429 134.070754,22.0708286 134.172499,20.4131143 L147.804619,20.4131143 C147.796924,14.4979714 145.444819,8.6454 138.165349,8.63425714 C133.102894,8.62568571 129.128854,13.3314 129.133129,18.7596857 C129.13826,25.5011143 132.965239,28.9759714 138.556939,28.9759714 C143.741659,28.9759714 147.012889,25.8336857 147.628489,23.0856857 L142.546369,22.5354 Z" id="Fill-16" stroke="none" fill="#000000" fill-rule="evenodd"></path>
    <path d="M168.206373,6.7182 C166.917033,6.7182 165.879918,5.67077143 165.879918,4.37991429 C165.879918,3.08991429 166.917033,2.04762857 168.206373,2.04762857 C169.493148,2.04762857 170.539668,3.08991429 170.539668,4.37991429 C170.539668,5.67077143 169.493148,6.7182 168.206373,6.7182 M168.206373,1.58477143 C166.660533,1.58477143 165.419073,2.82934286 165.419073,4.37991429 C165.419073,5.92791429 166.660533,7.18105714 168.206373,7.18105714 C169.751358,7.18105714 170.999658,5.92791429 170.999658,4.37991429 C170.999658,2.82934286 169.751358,1.58477143 168.206373,1.58477143" id="Fill-17" stroke="none" fill="#000000" fill-rule="evenodd"></path>
    <path d="M168.168839,4.23548571 L167.472014,4.23548571 L167.472014,3.33205714 L168.250919,3.33205714 C168.568979,3.33205714 168.788714,3.50691429 168.788714,3.77948571 C168.788714,4.09234286 168.538199,4.23548571 168.168839,4.23548571 M168.448424,4.59205714 L168.448424,4.57748571 C168.955439,4.54662857 169.303424,4.19777143 169.303424,3.71177143 C169.303424,3.3852 169.052909,2.92062857 168.310769,2.92062857 L166.987229,2.92062857 L166.987229,5.92834286 L167.472014,5.92834286 L167.472014,4.65377143 L167.758439,4.65377143 C168.131219,4.65377143 168.274004,4.78234286 168.651059,5.45777143 L168.917819,5.92834286 L169.506914,5.92834286 L169.145249,5.34377143 C168.894734,4.94091429 168.706634,4.68377143 168.448424,4.59205714" id="Fill-18" stroke="none" fill="#000000" fill-rule="evenodd"></path>
</svg>
