<?xml version="1.0" encoding="utf-8"?>
<!-- Generator: Adobe Illustrator 21.0.0, SVG Export Plug-In . SVG Version: 6.00 Build 0)  -->
<svg version="1.1" id="Layer_1" xmlns="http://www.w3.org/2000/svg" xmlns:xlink="http://www.w3.org/1999/xlink" x="0px" y="0px"
	 viewBox="0 0 133.6 85" style="enable-background:new 0 0 133.6 85;" xml:space="preserve">
<style type="text/css">
	.st0{fill:#000000;}
	.st1{fill:#000000;}
</style>
<g>
	<path class="st0" d="M40.2,74.9h3.8c0,0,0.7-0.1,0.7-0.6V48.8c0,0-0.1-0.8-1.4-0.3l-3.2,1c0,0-0.4,0.3-0.3,1.3v23.6
		C39.7,74.4,39.8,74.9,40.2,74.9z"/>
	<path class="st0" d="M100.1,42.5v28c0,0,0.5,3.7,4,4.6s4.3-1,4.3-1s0.4-0.7-1.1-1.3c0,0-2.2-1.3-2.3-4.1V41.5c0,0,0.2-0.7-1.3-0.3
		L100.1,42.5z"/>
	<path class="st1" d="M67.6,25.2c-0.4-0.1-0.7-0.2-1-0.4c-4.2-2.1-6.2-7.6-6.3-12c-0.1-1.7,0.2-3.5,1-5c1.2-2.1,3.7-3.4,6-3.1
		c2,0.3,3.7,1.6,4.8,3.2s1.6,3.6,1.9,5.6c0.4,2.8,0.3,5.8-0.8,8.5c-0.5,1.2-1.2,2.3-2.3,2.9C69.9,25.4,68.7,25.4,67.6,25.2z"/>
	<path class="st1" d="M85.8,1.9c0-0.1,0.1-0.3,0.2-0.4C86.3,1,87,1,87.7,1c2.9,0.2,5.5,2.4,6.2,5.3c0.4,1.7,0.2,3.5-0.1,5.3
		c-0.5,3.3-1.1,6.6-1.8,9.9c-0.6,2.8-1.3,5.6-2.9,7.9c-1.5,2.2-3.7,3.7-6.1,4.9c-4.8,2.4-10.1,3.2-15.4,3.8
		c-3.8,0.5-7.8,0.9-11.6-0.2c-3.2-0.9-6-2.8-8.4-5c-2.5-2.2-4.9-4.6-6.7-7.5c-0.9-1.5-1.6-3.2-1.5-5c0.1-2.1,1.3-4,3-5.3
		c0.8-0.6,2-1.1,2.9-0.6c0.7,0.4,0.9,1.2,1.2,1.9c1.2,3.7,3,7.3,5.3,10.5c1.4,2,3.1,3.9,5.3,4.9c2,0.8,4.2,0.8,6.4,0.7
		c5-0.2,10-0.7,14.6-2.6c2.1-0.9,4.2-2.2,5.4-4.2c0.9-1.5,1.1-3.2,1.4-4.9c0.8-5.9,1-11.9,0.8-17.8C85.7,2.6,85.7,2.2,85.8,1.9z"/>
	<path class="st0" d="M118.7,48.1c-14.6,3.4-9.4,19.6-9.4,19.6c4.9,12.2,19.3,6,19.3,6c1.3-0.5,0.5-1.6,0.5-1.6l-1.4-2
		c-0.4-1.2-1.7-0.4-1.7-0.4c-9.4,3.5-12.1-4.3-12.1-4.3l16.4-3.3c1.8-0.4,1.7-1.5,1.7-1.5C132.3,45.3,118.7,48.1,118.7,48.1z
		 M113.4,61.1c0,0-0.1-6.4,4.6-8.4c4.7-2,8.8,1.1,9.1,5.7L113.4,61.1z"/>
	<path class="st0" d="M58.9,48.1c0,0-7.3-0.2-10.2,7.9c0,0-2.6,7,1.1,14.1s14,5,15.4,3.1c0,0,0.6,3.9-4.2,5.9c0,0,0.1,0.1-4.6,0.2
		l-2,2.9c0,0-0.8,1.5,1.2,1.5c0,0,8.4,1.4,11.8-3.3c0,0,2.4-2.2,3-6.9v-23C70.3,50.6,70.2,48,58.9,48.1z M65.5,66.5
		c-1.7,5.1-7,3.9-7,3.9c-7.1-1.4-5.6-11.1-5.6-11.1c2-10.1,12.6-6.2,12.6-6.2V66.5z"/>
	<path class="st0" d="M84.6,48.1c0,0-7.3-0.2-10.2,7.9c0,0-2.6,7,1.1,14.1c3.7,7.1,14,5,15.4,3.1c0,0,0.6,3.9-4.2,5.9
		c0,0,0.1,0.1-4.6,0.2l-2,2.9c0,0-0.8,1.5,1.2,1.5c0,0,8.4,1.4,11.8-3.3c0,0,2.4-2.2,3-6.9v-23C96.1,50.6,96,48,84.6,48.1z
		 M91.2,66.5c-1.7,5.1-7,3.9-7,3.9c-7.1-1.4-5.6-11.1-5.6-11.1c2-10.1,12.6-6.2,12.6-6.2V66.5z"/>
	<path class="st0" d="M1.6,50.2c0,0.2,0,0.3,0,0.5c0.5,3.7,0.9,7.5,1.6,11.2c0.7,3.7,1.6,7.4,3,10.9c0.2,0.4,0.3,1,0.7,1.3
		c0.3,0.3,0.8,0.5,1.2,0.6C9,75.1,10,75,10.9,75c0.8,0,1.6-0.1,2.2-0.6c0.5-0.4,0.7-1.1,0.8-1.8c1.5-5.9,3.2-11.7,5-17.4
		c1.8,5.5,3.4,11.2,4.8,16.8c0.2,0.8,0.4,1.7,1,2.3c0.9,0.9,2.4,0.9,3.8,0.8c0.7-0.1,1.5-0.1,2-0.6c0.6-0.5,0.9-1.3,1.2-2
		c2.4-7.6,3.9-15.5,4.5-23.4c0-0.2,0-0.4-0.1-0.5c-0.2-0.2-0.5-0.2-0.8-0.1c-1,0.3-2,0.5-3,0.8c-0.3,0.1-0.5,0.1-0.7,0.3
		c-0.3,0.3-0.4,0.8-0.4,1.2c-0.7,6.3-1.8,12.6-3.4,18.7c-1.6-5.6-3.1-11.1-5.1-16.6c-0.4-1.1-0.8-2.2-1.7-2.9c-1.1-0.9-2.9-1-4-0.1
		c-1,0.7-1.5,2-1.9,3.2c-1.9,5.4-3.4,10.9-4.9,16.4c-1.8-6.6-3-13.4-3.6-20.3c0-0.2,0-0.5-0.2-0.6c-0.3-0.4-0.9-0.3-1.3-0.1
		c-0.9,0.3-1.8,0.6-2.7,0.9c-0.3,0.1-0.5,0.2-0.7,0.4C1.6,49.8,1.6,50,1.6,50.2z"/>
	<path class="st0" d="M40.8,44l3-0.8c0,0,0.8,0.1,0.8,0.8v1.8c0,0,0.1,0.4-3.8,1.3c0,0-1.2,0.6-1.2-0.7C39.7,46.5,39.2,45.3,40.8,44
		z"/>
</g>
</svg>
